<!-- icon666.com - MILLIONS vector ICONS FREE --><svg viewBox="0 0 32 32" xmlns="http://www.w3.org/2000/svg"><g id="Pause"><path d="m14 5v22c0 1.68-1.84 3-4.2 3h-1.6c-2.36 0-4.2-1.32-4.2-3v-16a1 1 0 0 1 2 0v16c0 .35.84 1 2.2 1h1.6c1.36 0 2.2-.65 2.2-1v-22c0-.35-.84-1-2.2-1h-1.6c-1.36 0-2.2.65-2.2 1v2a1 1 0 0 1 -2 0v-2c0-1.68 1.84-3 4.2-3h1.6c2.36 0 4.2 1.32 4.2 3zm13 17a1 1 0 0 0 1-1v-16a3 3 0 0 0 -3-3h-4a3 3 0 0 0 -3 3v22a3 3 0 0 0 3 3h4a3 3 0 0 0 3-3v-2a1 1 0 0 0 -2 0v2a1 1 0 0 1 -1 1h-4a1 1 0 0 1 -1-1v-22a1 1 0 0 1 1-1h4a1 1 0 0 1 1 1v16a1 1 0 0 0 1 1z" fill="#000000" style="fill: rgb(221, 90, 211);"></path></g></svg>