<!-- icon666.com - MILLIONS vector ICONS FREE --><svg viewBox="0 0 32 32" xmlns="http://www.w3.org/2000/svg"><g id="Volume"><path d="m3 12v8a1 1 0 0 0 1 1 1 1 0 0 1 0 2 3 3 0 0 1 -3-3v-8a3 3 0 0 1 3-3 1 1 0 0 1 0 2 1 1 0 0 0 -1 1zm15-3a1 1 0 0 0 -1 1v16.59a1 1 0 0 1 -.59.91 1 1 0 0 1 -1.05-.14l-6.69-6.1a1 1 0 0 0 -1.34 1.48l6.67 6.11a3 3 0 0 0 2 .75 3 3 0 0 0 3-3v-16.6a1 1 0 0 0 -1-1zm-.76-6.32a3 3 0 0 0 -3.24.48l-6.67 6.1a1 1 0 0 0 .67 1.74 1 1 0 0 0 .67-.26l6.67-6.08a1 1 0 0 1 1.07-.16 1 1 0 0 1 .59.91 1 1 0 0 0 2 0 3 3 0 0 0 -1.76-2.73zm4.09 9.55a1 1 0 0 0 -.66 1.88 2 2 0 0 1 0 3.78 1 1 0 0 0 .33 1.94 1 1 0 0 0 .33-.06 4 4 0 0 0 0-7.54zm2.14-.38a2.32 2.32 0 0 1 .69.73 1 1 0 0 0 .84.47 1 1 0 0 0 .54-.15 1 1 0 0 0 .31-1.38 4.24 4.24 0 0 0 -1.32-1.37 1 1 0 0 0 -1.06 1.7zm3.53 4.15c0-.28 0-.56 0-.83a1 1 0 0 0 -2 .15v.68c0 2.1-.77 3.68-1.53 4.15a1 1 0 0 0 -.32 1.38 1 1 0 0 0 1.38.32c1.47-.94 2.47-3.23 2.47-5.85zm.05-4.82a1 1 0 0 0 .91.61.93.93 0 0 0 .4-.09 1 1 0 0 0 .52-1.31 10.51 10.51 0 0 0 -2.27-3.39 1 1 0 0 0 -1.42 0 1 1 0 0 0 0 1.41 8.44 8.44 0 0 1 1.86 2.77zm2.95 3.61a1 1 0 0 0 -1.07-.91 1 1 0 0 0 -.93 1.12v1.05a10.65 10.65 0 0 1 -2.7 7.46 1 1 0 0 0 0 1.42 1 1 0 0 0 .71.29 1 1 0 0 0 .71-.29 12.68 12.68 0 0 0 3.28-8.93c0-.41 0-.81 0-1.21z" fill="#000000" style="fill: rgb(255, 91, 221);"></path></g></svg>